PathFileType	4	(X/Y/Z)	/Users/itak/Documents/Research/Walk-IL/dataset/trc/00498_00183.trc
DataRate	CameraRate	NumFrames	NumMarkers	Units	OrigDataRate	OrigDataStartFrame	OrigNumFrames
100.000000	100.000000	4	56	mm	100.000000	0	677
Frame#	Time	RPSI			LPSI			L3			STRN			T10			C7			CLAV			RBAK			LBAK			LSHO			LUPA			LAEL			LAOL			LWTS			LWPS			LFRA			LIFD			LHPS			LHTS			RSHO			RUPA			RAEL			RAOL			RWTS			RWPS			RFRA			RIFD			RHTS			RHPS			RBHD			LFHD			RFHD			LBHD			LHIP			RHIP			RASI			LASI			LKNE			LTHI			LANK			LTIP			LTOE			LMT1			LMT5			LHEE			RKNE			RTHI			RANK			RTIP			RTOE			RMT1			RMT5			RHEE			*53			*54			*55			
		X1	Y1	Z1	X2	Y2	Z2	X3	Y3	Z3	X4	Y4	Z4	X5	Y5	Z5	X6	Y6	Z6	X7	Y7	Z7	X8	Y8	Z8	X9	Y9	Z9	X10	Y10	Z10	X11	Y11	Z11	X12	Y12	Z12	X13	Y13	Z13	X14	Y14	Z14	X15	Y15	Z15	X16	Y16	Z16	X17	Y17	Z17	X18	Y18	Z18	X19	Y19	Z19	X20	Y20	Z20	X21	Y21	Z21	X22	Y22	Z22	X23	Y23	Z23	X24	Y24	Z24	X25	Y25	Z25	X26	Y26	Z26	X27	Y27	Z27	X28	Y28	Z28	X29	Y29	Z29	X30	Y30	Z30	X31	Y31	Z31	X32	Y32	Z32	X33	Y33	Z33	X34	Y34	Z34	X35	Y35	Z35	X36	Y36	Z36	X37	Y37	Z37	X38	Y38	Z38	X39	Y39	Z39	X40	Y40	Z40	X41	Y41	Z41	X42	Y42	Z42	X43	Y43	Z43	X44	Y44	Z44	X45	Y45	Z45	X46	Y46	Z46	X47	Y47	Z47	X48	Y48	Z48	X49	Y49	Z49	X50	Y50	Z50	X51	Y51	Z51	X52	Y52	Z52	X53	Y53	Z53	X54	Y54	Z54	X55	Y55	Z55	X56	Y56	Z56	

1	0	-1132.854858398438	977.5889892578125	-411.4491577148438	-1068.48291015625	977.1182861328125	-516.8317260742188	-1113.864868164062	1034.581420898438	-475.0287475585938	-916.0267944335938	1205.271484375	-378.8216247558594	-1131.889038085938	1140.696411132812	-480.1148376464844	-1094.019165039062	1371.686889648438	-461.2910766601562	-951.957763671875	1298.89599609375	-396.4924926757812	-1171.696166992188	1249.608032226562	-402.6152648925781	-1078.890014648438	1317.668090820312	-550.11865234375	-962.2472534179688	1364.755859375	-578.0210571289062	-947.9533081054688	1237.853881835938	-637.61083984375	-931.257080078125	1027.505493164062	-656.9213256835938	-1023.994201660156	1019.636352539062	-625.829833984375	-856.6632080078125	845.8992919921875	-581.16357421875	-913.3897705078125	806.9450073242188	-646.3260498046875	-912.3740234375	952.7194213867188	-649.9244384765625	-855.1859130859375	688.7371215820312	-562.7728271484375	-891.578125	753.0137939453125	-630.341064453125	-842.1117553710938	765.3389892578125	-592.0908203125	-1106.490600585938	1367.526000976562	-302.6615295410156	-1143.27880859375	1298.889526367188	-256.3126220703125	-1135.971801757812	1030.634887695312	-208.9687194824219	-1174.473876953125	1011.856628417969	-259.7674560546875	-1017.409484863281	834.6589965820312	-210.5177001953125	-1101.998413085938	807.9231567382812	-188.1703033447266	-1129.735595703125	976.3923950195312	-200.7657470703125	-1007.909484863281	675.4053344726562	-211.6233215332031	-1005.831970214844	741.0087280273438	-184.5036315917969	-1076.419677734375	735.1743774414062	-181.8886260986328	-1107.8271484375	1519.92626953125	-375.8226623535156	-938.3677368164062	1603.135375976562	-444.6347045898438	-1000.260803222656	1595.425537109375	-333.2955932617188	-1043.241455078125	1523.695678710938	-521.2694091796875	-911.5150146484375	898.6068115234375	-576.81298828125	-1109.98828125	874.303955078125	-254.6683502197266	-986.654541015625	915.0516357421875	-258.4923706054688	-866.2861328125	928.1930541992188	-469.0509338378906	-926.165283203125	475.6412353515625	-553.060546875	-903.4268188476562	633.6417236328125	-562.2725219726562	-1006.626892089844	49.73602676391602	-596.2102661132812	-952.7650146484375	326.9706420898438	-574.7039184570312	-870.066650390625	40.19475936889648	-443.8217468261719	-952.7639770507812	43.85301971435547	-456.8743591308594	-906.2160034179688	44.45523834228516	-548.0036010742188	-1079.372802734375	48.0919189453125	-567.1394653320312	-1094.841064453125	484.2807922363281	-277.5893859863281	-1089.748657226562	744.3990478515625	-237.7904510498047	-1130.483032226562	48.46932220458984	-332.9561157226562	-1085.569091796875	340.3763732910156	-295.34716796875	-926.940673828125	45.50003814697266	-308.3186950683594	-978.7919311523438	51.01700592041016	-363.8186950683594	-1028.06689453125	46.48006439208984	-280.583740234375	-1163.391845703125	39.08305358886719	-395.317626953125	nan	nan	nan	nan	nan	nan	nan	nan	nan	
2	0.01	-1132.815551757812	977.5845947265625	-411.3276977539062	-1068.490112304688	977.1426391601562	-516.74169921875	-1113.673706054688	1034.457641601562	-474.8710021972656	-916.0159301757812	1205.268310546875	-378.7257995605469	-1131.832275390625	1140.686645507812	-479.9953918457031	-1094.039794921875	1371.711181640625	-461.16748046875	-951.936279296875	1298.903076171875	-396.3731994628906	-1171.65576171875	1249.607666015625	-402.5128479003906	-1078.86669921875	1317.652954101562	-550.01416015625	-962.2111206054688	1364.762817382812	-577.931884765625	-947.9649047851562	1237.8701171875	-637.5261840820312	-931.2305297851562	1027.531005859375	-656.8201904296875	-1023.981811523438	1019.664794921875	-625.7424926757812	-856.67333984375	845.8748779296875	-581.1270751953125	-913.3433837890625	806.9362182617188	-646.216064453125	-912.2944946289062	952.72998046875	-649.8221435546875	-855.1123046875	688.7522583007812	-562.682373046875	-891.5634765625	752.9921264648438	-630.2593994140625	-842.0452880859375	765.3097534179688	-592.0180053710938	-1106.43212890625	1367.5234375	-302.5889282226562	-1143.235961914062	1298.876098632812	-256.2062377929688	-1135.911987304688	1030.621948242188	-208.9146575927734	-1174.426391601562	1011.852966308594	-259.6972045898438	-1017.364868164062	834.66455078125	-210.4166412353516	-1101.947143554688	807.91748046875	-188.0713806152344	-1129.683349609375	976.38037109375	-200.6629943847656	-1007.83251953125	675.4107666015625	-211.5513763427734	-1005.769714355469	741.0203857421875	-184.3887023925781	-1076.37646484375	735.15869140625	-181.8129272460938	-1107.703735351562	1520.013549804688	-375.7153015136719	-938.26025390625	1603.088623046875	-444.5785217285156	-1000.043090820312	1595.356079101562	-333.1526489257812	-1043.18896484375	1523.750366210938	-521.1704711914062	-911.4283447265625	898.5927124023438	-576.7102661132812	-1109.973266601562	874.2392578125	-254.5736083984375	-986.583740234375	915.054931640625	-258.4254455566406	-866.2373657226562	928.1787109375	-468.9679260253906	-926.0485229492188	475.6011047363281	-552.9097900390625	-903.3764038085938	633.6431884765625	-562.156494140625	-1006.622497558594	49.7431526184082	-596.2003784179688	-952.6987915039062	326.9609680175781	-574.6416015625	-870.0631103515625	40.18084716796875	-443.8060913085938	-952.7678833007812	43.83799362182617	-456.8688354492188	-906.2203369140625	44.46144485473633	-547.995849609375	-1079.385864257812	48.10577774047852	-567.0853271484375	-1094.758544921875	484.2682800292969	-277.5218811035156	-1089.656494140625	744.3871459960938	-237.7264099121094	-1130.476440429688	48.46934127807617	-332.9506530761719	-1085.507934570312	340.3652648925781	-295.3019409179688	-926.9556274414062	45.49842834472656	-308.3340148925781	-978.7932739257812	51.01683807373047	-363.8223876953125	-1028.069458007812	46.47304916381836	-280.5828247070312	-1163.391235351562	39.08320617675781	-395.3176879882812	nan	nan	nan	nan	nan	nan	nan	nan	nan	
3	0.02	-1132.764892578125	977.5836791992188	-411.1731262207031	-1068.515014648438	977.1366577148438	-516.6566772460938	-1113.459350585938	1034.317504882812	-474.6898498535156	-916	1205.266479492188	-378.6012878417969	-1131.760375976562	1140.671997070312	-479.8579406738281	-1094.054809570312	1371.734741210938	-461.0210571289062	-951.9013671875	1298.91015625	-396.2274475097656	-1171.602905273438	1249.6015625	-402.3876953125	-1078.836791992188	1317.633056640625	-549.8843994140625	-962.1701049804688	1364.770141601562	-577.82373046875	-947.9755249023438	1237.88671875	-637.4204711914062	-931.1858520507812	1027.560546875	-656.6897583007812	-1023.958923339844	1019.699096679688	-625.6299438476562	-856.682373046875	845.8424072265625	-581.0782470703125	-913.2745361328125	806.9306030273438	-646.0759887695312	-912.19384765625	952.7376708984375	-649.692626953125	-855.0358276367188	688.7666625976562	-562.5804443359375	-891.5074462890625	752.9639892578125	-630.1568603515625	-841.9605712890625	765.2705688476562	-591.92041015625	-1106.359985351562	1367.519409179688	-302.4976196289062	-1143.1796875	1298.8564453125	-256.0730590820312	-1135.835083007812	1030.6044921875	-208.8428649902344	-1174.364868164062	1011.846374511719	-259.6064147949219	-1017.302612304688	834.6671142578125	-210.2945251464844	-1101.876586914062	807.9049072265625	-187.9503631591797	-1129.61474609375	976.3638305664062	-200.5358734130859	-1007.729431152344	675.4111938476562	-211.4705047607422	-1005.687866210938	741.029541015625	-184.2584533691406	-1076.314208984375	735.135009765625	-181.7201843261719	-1107.552368164062	1520.113525390625	-375.5781860351562	-938.1207885742188	1603.02880859375	-444.5059814453125	-999.783447265625	1595.271606445312	-332.9798278808594	-1043.125244140625	1523.811767578125	-521.0454711914062	-911.3123779296875	898.577880859375	-576.5775146484375	-1109.939208984375	874.174072265625	-254.456298828125	-986.4910888671875	915.0564575195312	-258.3385009765625	-866.1646728515625	928.1615600585938	-468.8573303222656	-925.92138671875	475.5585327148438	-552.7347412109375	-903.3096313476562	633.6417846679688	-562.0211181640625	-1006.618530273438	49.75202560424805	-596.18798828125	-952.62255859375	326.9479370117188	-574.5598754882812	-870.0582885742188	40.16500091552734	-443.7862854003906	-952.7723999023438	43.82150650024414	-456.8625793457031	-906.2246704101562	44.47046279907227	-547.986328125	-1079.393920898438	48.12073135375977	-567.02685546875	-1094.658935546875	484.2546691894531	-277.4471740722656	-1089.54541015625	744.3702392578125	-237.6466064453125	-1130.46875	48.46933746337891	-332.9458923339844	-1085.435180664062	340.3523559570312	-295.2474060058594	-926.9703369140625	45.49673843383789	-308.3487243652344	-978.7950439453125	51.01607131958008	-363.827392578125	-1028.071411132812	46.46630096435547	-280.5830078125	-1163.390258789062	39.08355712890625	-395.3184814453125	nan	nan	nan	nan	nan	nan	nan	nan	nan	
4	0.03	-1132.703735351562	977.5872802734375	-410.9917602539062	-1068.570678710938	977.086669921875	-516.5933227539062	-1113.23974609375	1034.17333984375	-474.4993896484375	-915.977783203125	1205.266845703125	-378.4519653320312	-1131.676513671875	1140.65185546875	-479.7127685546875	-1094.058349609375	1371.7529296875	-460.8611755371094	-951.8502197265625	1298.916625976562	-396.0635070800781	-1171.538696289062	1249.587768554688	-402.2465209960938	-1078.800903320312	1317.608764648438	-549.7362060546875	-962.1270751953125	1364.777099609375	-577.70263671875	-947.98095703125	1237.900756835938	-637.2987060546875	-931.1173706054688	1027.591918945312	-656.533203125	-1023.921569824219	1019.736572265625	-625.4965209960938	-856.6864013671875	845.802978515625	-581.0166625976562	-913.1803588867188	806.9300537109375	-645.9105834960938	-912.0748901367188	952.739501953125	-649.5404663085938	-854.9658203125	688.77783203125	-562.4767456054688	-891.3986206054688	752.9293212890625	-630.0361328125	-841.8592529296875	765.2221069335938	-591.7996826171875	-1106.277587890625	1367.513305664062	-302.3912353515625	-1143.111328125	1298.830322265625	-255.9194030761719	-1135.7431640625	1030.58251953125	-208.7541198730469	-1174.29052734375	1011.836120605469	-259.4971313476562	-1017.222473144531	834.6644287109375	-210.15869140625	-1101.786743164062	807.883544921875	-187.8136749267578	-1129.53076171875	976.3428955078125	-200.3908996582031	-1007.602478027344	675.4037475585938	-211.3883361816406	-1005.587646484375	741.033447265625	-184.1249237060547	-1076.2314453125	735.1025390625	-181.6153717041016	-1107.380737304688	1520.21728515625	-375.4159240722656	-937.9524536132812	1602.9580078125	-444.4187316894531	-999.4989013671875	1595.177001953125	-332.7879028320312	-1043.052978515625	1523.873413085938	-520.8995361328125	-911.1712036132812	898.5630493164062	-576.419189453125	-1109.881713867188	874.115478515625	-254.3210601806641	-986.37890625	915.0546875	-258.23388671875	-866.065673828125	928.14208984375	-468.7211608886719	-925.7926025390625	475.5191040039062	-552.5484619140625	-903.2273559570312	633.6365966796875	-561.8767700195312	-1006.615600585938	49.76184844970703	-596.1737670898438	-952.5443725585938	326.9320373535156	-574.4623413085938	-870.0525512695312	40.14846420288086	-443.7633056640625	-952.7767333984375	43.80511856079102	-456.85595703125	-906.228515625	44.48208999633789	-547.9754638671875	-1079.396362304688	48.13523101806641	-566.9703979492188	-1094.548583984375	484.2410278320312	-277.3713684082031	-1089.422607421875	744.3482666015625	-237.5544586181641	-1130.460815429688	48.46930694580078	-332.94287109375	-1085.356201171875	340.3385314941406	-295.1864624023438	-926.9828491210938	45.49512481689453	-308.3608093261719	-978.7974243164062	51.01526260375977	-363.8348388671875	-1028.072509765625	46.46074295043945	-280.5842590332031	-1163.388916015625	39.08425903320312	-395.3203735351562	nan	nan	nan	nan	nan	nan	nan	nan	nan	
